<?xml version="1.0" standalone="no"?><!DOCTYPE svg PUBLIC "-//W3C//DTD SVG 1.1//EN" "http://www.w3.org/Graphics/SVG/1.1/DTD/svg11.dtd"><svg t="1619596017772" class="icon" viewBox="0 0 1027 1024" version="1.1" xmlns="http://www.w3.org/2000/svg" p-id="2005" xmlns:xlink="http://www.w3.org/1999/xlink" width="200.5859375" height="200"><defs><style type="text/css"></style></defs><path d="M517.46474667 927.10798222c-17.02798222 0-30.57208889-18.08839111-35.35530667-36.21660444V542.69952H133.06311111c-12.11733333 0-30.09422222-12.63502222-30.09422222-30.09422222 0-15.59893333 14.21994667-30.90887111 28.71409778-30.90887111 1.68391111 0 3.36668445 0.20366222 5.00394666 0.61098666l0.80896 0.2048h349.88714667v-349.04746666c0-16.72533333 12.36195555-35.36099555 30.09422222-35.36099556 17.45351111 0 30.08853333 17.9712 30.08853333 30.09422222v349.05315556H907.15022222c16.29980445 0 24.82744889 23.01724445 24.82744889 35.35416889 0 12.11733333-12.63502222 30.09422222-30.08853333 30.09422222H547.57034667v354.31424c-0.01137778 12.11733333-12.64753778 30.09422222-30.1056 30.09422222z" fill="#eeeeee" p-id="2006"></path></svg>